<svg xmlns="http://www.w3.org/2000/svg" xmlns:xlink="http://www.w3.org/1999/xlink" width="500" zoomAndPan="magnify" viewBox="0 0 375 374.999991" height="500" preserveAspectRatio="xMidYMid meet" version="1.0"><defs><clipPath id="3f3d2a1d4a"><path d="M 41.027344 75 L 334 75 L 334 299.765625 L 41.027344 299.765625 Z M 41.027344 75 " clip-rule="nonzero"/></clipPath><clipPath id="0d94a8adb4"><path d="M 56.027344 75 L 318.972656 75 C 322.953125 75 326.765625 76.582031 329.578125 79.394531 C 332.394531 82.207031 333.972656 86.023438 333.972656 90 L 333.972656 284.765625 C 333.972656 288.742188 332.394531 292.558594 329.578125 295.371094 C 326.765625 298.183594 322.953125 299.765625 318.972656 299.765625 L 56.027344 299.765625 C 47.742188 299.765625 41.027344 293.050781 41.027344 284.765625 L 41.027344 90 C 41.027344 81.714844 47.742188 75 56.027344 75 Z M 56.027344 75 " clip-rule="nonzero"/></clipPath><clipPath id="9d32ac05e3"><path d="M 0.0273438 0 L 293 0 L 293 224.765625 L 0.0273438 224.765625 Z M 0.0273438 0 " clip-rule="nonzero"/></clipPath><clipPath id="a3027adb66"><path d="M 15.027344 0 L 277.972656 0 C 281.953125 0 285.765625 1.582031 288.578125 4.394531 C 291.394531 7.207031 292.972656 11.023438 292.972656 15 L 292.972656 209.765625 C 292.972656 213.742188 291.394531 217.558594 288.578125 220.371094 C 285.765625 223.183594 281.953125 224.765625 277.972656 224.765625 L 15.027344 224.765625 C 6.742188 224.765625 0.0273438 218.050781 0.0273438 209.765625 L 0.0273438 15 C 0.0273438 6.714844 6.742188 0 15.027344 0 Z M 15.027344 0 " clip-rule="nonzero"/></clipPath><clipPath id="8446f1f846"><rect x="0" width="293" y="0" height="225"/></clipPath><clipPath id="10ff044cb6"><path d="M 45.300781 79 L 329.550781 79 L 329.550781 133 L 45.300781 133 Z M 45.300781 79 " clip-rule="nonzero"/></clipPath><clipPath id="29055e6e5c"><path d="M 45.300781 142 L 329.550781 142 L 329.550781 296.398438 L 45.300781 296.398438 Z M 45.300781 142 " clip-rule="nonzero"/></clipPath><clipPath id="781e84f143"><path d="M 263.027344 225.707031 L 349.277344 225.707031 L 349.277344 311.957031 L 263.027344 311.957031 Z M 263.027344 225.707031 " clip-rule="nonzero"/></clipPath></defs><g clip-path="url(#3f3d2a1d4a)"><g clip-path="url(#0d94a8adb4)"><g transform="matrix(1, 0, 0, 1, 41, 75)"><g clip-path="url(#8446f1f846)"><g clip-path="url(#9d32ac05e3)"><g clip-path="url(#a3027adb66)"><path fill="#e0e0e0" d="M 0.0273438 0 L 293.273438 0 L 293.273438 224.765625 L 0.0273438 224.765625 Z M 0.0273438 0 " fill-opacity="1" fill-rule="nonzero"/></g></g></g></g></g></g><g clip-path="url(#10ff044cb6)"><path fill="#000000" d="M 317.773438 79.113281 L 57.082031 79.113281 C 56.308594 79.113281 55.542969 79.191406 54.785156 79.339844 C 54.027344 79.492188 53.289062 79.71875 52.578125 80.015625 C 51.863281 80.3125 51.183594 80.675781 50.539062 81.105469 C 49.898438 81.535156 49.304688 82.023438 48.757812 82.574219 C 48.210938 83.121094 47.722656 83.714844 47.292969 84.359375 C 46.863281 85.003906 46.5 85.683594 46.203125 86.398438 C 45.90625 87.117188 45.683594 87.851562 45.53125 88.613281 C 45.378906 89.371094 45.304688 90.140625 45.300781 90.914062 L 45.300781 132.695312 L 329.550781 132.695312 L 329.550781 90.914062 C 329.550781 90.140625 329.476562 89.371094 329.324219 88.613281 C 329.171875 87.851562 328.949219 87.117188 328.652344 86.398438 C 328.355469 85.683594 327.992188 85.003906 327.5625 84.359375 C 327.132812 83.714844 326.644531 83.121094 326.097656 82.574219 C 325.550781 82.023438 324.957031 81.535156 324.3125 81.105469 C 323.671875 80.675781 322.992188 80.3125 322.277344 80.015625 C 321.566406 79.71875 320.828125 79.492188 320.070312 79.339844 C 319.3125 79.191406 318.546875 79.113281 317.773438 79.113281 Z M 78.335938 120.042969 C 77.414062 120.042969 76.496094 119.949219 75.589844 119.769531 C 74.683594 119.589844 73.800781 119.320312 72.945312 118.96875 C 72.09375 118.613281 71.28125 118.179688 70.511719 117.664062 C 69.742188 117.148438 69.03125 116.5625 68.378906 115.910156 C 67.722656 115.253906 67.140625 114.539062 66.625 113.769531 C 66.113281 113 65.679688 112.1875 65.324219 111.332031 C 64.972656 110.472656 64.703125 109.59375 64.523438 108.683594 C 64.34375 107.773438 64.253906 106.855469 64.253906 105.929688 C 64.253906 105.003906 64.34375 104.085938 64.523438 103.175781 C 64.703125 102.269531 64.972656 101.386719 65.324219 100.53125 C 65.679688 99.675781 66.113281 98.859375 66.625 98.089844 C 67.140625 97.320312 67.722656 96.605469 68.378906 95.953125 C 69.03125 95.296875 69.742188 94.710938 70.511719 94.195312 C 71.28125 93.683594 72.09375 93.246094 72.945312 92.894531 C 73.800781 92.539062 74.683594 92.269531 75.589844 92.089844 C 76.496094 91.910156 77.414062 91.820312 78.335938 91.820312 C 79.261719 91.820312 80.179688 91.910156 81.085938 92.089844 C 81.992188 92.269531 82.871094 92.539062 83.726562 92.894531 C 84.582031 93.246094 85.394531 93.683594 86.160156 94.195312 C 86.929688 94.710938 87.640625 95.296875 88.296875 95.953125 C 88.949219 96.605469 89.535156 97.320312 90.046875 98.089844 C 90.5625 98.859375 90.996094 99.675781 91.347656 100.53125 C 91.703125 101.386719 91.96875 102.269531 92.152344 103.175781 C 92.332031 104.085938 92.421875 105.003906 92.421875 105.929688 C 92.417969 106.855469 92.324219 107.773438 92.144531 108.683594 C 91.960938 109.589844 91.691406 110.472656 91.335938 111.328125 C 90.980469 112.183594 90.542969 112.996094 90.027344 113.765625 C 89.515625 114.539062 88.929688 115.25 88.273438 115.902344 C 87.621094 116.558594 86.90625 117.144531 86.136719 117.660156 C 85.367188 118.171875 84.558594 118.609375 83.703125 118.960938 C 82.847656 119.316406 81.96875 119.585938 81.058594 119.765625 C 80.152344 119.949219 79.238281 120.039062 78.3125 120.042969 Z M 116.578125 120.042969 C 115.652344 120.042969 114.734375 119.949219 113.828125 119.769531 C 112.921875 119.589844 112.039062 119.320312 111.1875 118.96875 C 110.332031 118.613281 109.519531 118.179688 108.75 117.664062 C 107.984375 117.148438 107.269531 116.5625 106.617188 115.910156 C 105.964844 115.253906 105.378906 114.539062 104.867188 113.769531 C 104.351562 113 103.917969 112.1875 103.5625 111.332031 C 103.210938 110.472656 102.941406 109.59375 102.761719 108.683594 C 102.582031 107.773438 102.492188 106.855469 102.492188 105.929688 C 102.492188 105.003906 102.582031 104.085938 102.761719 103.175781 C 102.941406 102.269531 103.210938 101.386719 103.5625 100.53125 C 103.917969 99.675781 104.351562 98.859375 104.867188 98.089844 C 105.378906 97.320312 105.964844 96.605469 106.617188 95.953125 C 107.269531 95.296875 107.984375 94.710938 108.75 94.195312 C 109.519531 93.683594 110.332031 93.246094 111.1875 92.894531 C 112.039062 92.539062 112.921875 92.269531 113.828125 92.089844 C 114.734375 91.910156 115.652344 91.820312 116.578125 91.820312 C 117.5 91.820312 118.417969 91.910156 119.324219 92.089844 C 120.230469 92.269531 121.113281 92.539062 121.964844 92.894531 C 122.820312 93.246094 123.632812 93.683594 124.402344 94.195312 C 125.171875 94.710938 125.882812 95.296875 126.535156 95.953125 C 127.191406 96.605469 127.773438 97.320312 128.289062 98.089844 C 128.800781 98.859375 129.234375 99.675781 129.589844 100.53125 C 129.941406 101.386719 130.210938 102.269531 130.390625 103.175781 C 130.570312 104.085938 130.660156 105.003906 130.660156 105.929688 C 130.65625 106.855469 130.566406 107.773438 130.382812 108.683594 C 130.199219 109.589844 129.929688 110.472656 129.574219 111.328125 C 129.21875 112.183594 128.785156 112.996094 128.269531 113.765625 C 127.753906 114.539062 127.167969 115.25 126.511719 115.902344 C 125.859375 116.558594 125.148438 117.144531 124.378906 117.660156 C 123.609375 118.171875 122.796875 118.609375 121.941406 118.960938 C 121.085938 119.316406 120.207031 119.585938 119.300781 119.765625 C 118.390625 119.949219 117.476562 120.039062 116.550781 120.042969 Z M 154.816406 120.042969 C 153.890625 120.042969 152.976562 119.949219 152.066406 119.769531 C 151.160156 119.589844 150.28125 119.320312 149.425781 118.96875 C 148.570312 118.613281 147.757812 118.179688 146.992188 117.664062 C 146.222656 117.148438 145.511719 116.5625 144.855469 115.910156 C 144.203125 115.253906 143.617188 114.539062 143.105469 113.769531 C 142.589844 113 142.15625 112.1875 141.804688 111.332031 C 141.449219 110.472656 141.183594 109.59375 141 108.683594 C 140.820312 107.773438 140.730469 106.855469 140.730469 105.929688 C 140.730469 105.003906 140.820312 104.085938 141 103.175781 C 141.183594 102.269531 141.449219 101.386719 141.804688 100.53125 C 142.15625 99.675781 142.589844 98.859375 143.105469 98.089844 C 143.617188 97.320312 144.203125 96.605469 144.855469 95.953125 C 145.511719 95.296875 146.222656 94.710938 146.992188 94.195312 C 147.757812 93.683594 148.570312 93.246094 149.425781 92.894531 C 150.28125 92.539062 151.160156 92.269531 152.066406 92.089844 C 152.976562 91.910156 153.890625 91.820312 154.816406 91.820312 C 155.742188 91.820312 156.65625 91.910156 157.5625 92.089844 C 158.46875 92.269531 159.351562 92.539062 160.207031 92.894531 C 161.058594 93.246094 161.871094 93.683594 162.640625 94.195312 C 163.410156 94.710938 164.121094 95.296875 164.773438 95.953125 C 165.429688 96.605469 166.011719 97.320312 166.527344 98.089844 C 167.039062 98.859375 167.472656 99.675781 167.828125 100.53125 C 168.183594 101.386719 168.449219 102.269531 168.628906 103.175781 C 168.808594 104.085938 168.898438 105.003906 168.898438 105.929688 C 168.898438 106.859375 168.804688 107.777344 168.621094 108.683594 C 168.4375 109.59375 168.167969 110.476562 167.8125 111.332031 C 167.457031 112.1875 167.019531 113 166.503906 113.769531 C 165.988281 114.542969 165.402344 115.253906 164.75 115.910156 C 164.09375 116.5625 163.378906 117.148438 162.609375 117.664062 C 161.839844 118.175781 161.027344 118.613281 160.171875 118.964844 C 159.316406 119.320312 158.433594 119.589844 157.527344 119.769531 C 156.621094 119.949219 155.703125 120.039062 154.777344 120.042969 Z M 305.5625 111.0625 L 218.574219 111.0625 C 218.238281 111.0625 217.902344 111.027344 217.574219 110.960938 C 217.246094 110.898438 216.925781 110.800781 216.613281 110.671875 C 216.304688 110.542969 216.007812 110.382812 215.726562 110.195312 C 215.449219 110.007812 215.191406 109.796875 214.953125 109.558594 C 214.714844 109.320312 214.5 109.0625 214.316406 108.78125 C 214.128906 108.5 213.96875 108.207031 213.839844 107.894531 C 213.714844 107.582031 213.617188 107.261719 213.550781 106.929688 C 213.484375 106.601562 213.453125 106.265625 213.453125 105.929688 C 213.453125 105.59375 213.484375 105.257812 213.550781 104.929688 C 213.617188 104.597656 213.714844 104.277344 213.839844 103.964844 C 213.96875 103.65625 214.128906 103.359375 214.316406 103.078125 C 214.5 102.800781 214.714844 102.539062 214.953125 102.300781 C 215.191406 102.0625 215.449219 101.851562 215.726562 101.664062 C 216.007812 101.476562 216.304688 101.316406 216.613281 101.1875 C 216.925781 101.058594 217.246094 100.964844 217.574219 100.898438 C 217.902344 100.832031 218.238281 100.796875 218.574219 100.796875 L 305.539062 100.796875 C 305.875 100.796875 306.207031 100.832031 306.539062 100.898438 C 306.867188 100.964844 307.1875 101.058594 307.5 101.1875 C 307.808594 101.316406 308.105469 101.476562 308.382812 101.664062 C 308.664062 101.851562 308.921875 102.0625 309.160156 102.300781 C 309.398438 102.539062 309.609375 102.800781 309.796875 103.078125 C 309.984375 103.359375 310.140625 103.65625 310.269531 103.964844 C 310.398438 104.277344 310.496094 104.597656 310.5625 104.929688 C 310.628906 105.257812 310.660156 105.59375 310.660156 105.929688 C 310.660156 106.265625 310.628906 106.601562 310.5625 106.929688 C 310.496094 107.261719 310.398438 107.582031 310.269531 107.894531 C 310.140625 108.207031 309.984375 108.5 309.796875 108.78125 C 309.609375 109.0625 309.398438 109.320312 309.160156 109.558594 C 308.921875 109.796875 308.664062 110.007812 308.382812 110.195312 C 308.105469 110.382812 307.808594 110.542969 307.5 110.671875 C 307.1875 110.800781 306.867188 110.898438 306.539062 110.960938 C 306.207031 111.027344 305.875 111.0625 305.539062 111.0625 Z M 305.5625 111.0625 " fill-opacity="1" fill-rule="nonzero"/></g><g clip-path="url(#29055e6e5c)"><path fill="#000000" d="M 45.300781 142.960938 L 45.300781 284.441406 C 45.304688 285.21875 45.378906 285.984375 45.53125 286.746094 C 45.683594 287.503906 45.90625 288.242188 46.203125 288.957031 C 46.5 289.671875 46.863281 290.351562 47.292969 290.996094 C 47.722656 291.640625 48.210938 292.238281 48.757812 292.785156 C 49.304688 293.332031 49.898438 293.820312 50.539062 294.253906 C 51.183594 294.683594 51.863281 295.046875 52.578125 295.34375 C 53.289062 295.640625 54.027344 295.863281 54.785156 296.015625 C 55.542969 296.167969 56.308594 296.246094 57.082031 296.246094 L 317.773438 296.246094 C 318.546875 296.246094 319.3125 296.167969 320.070312 296.015625 C 320.828125 295.863281 321.566406 295.640625 322.277344 295.34375 C 322.992188 295.046875 323.671875 294.683594 324.3125 294.253906 C 324.957031 293.820312 325.550781 293.332031 326.097656 292.785156 C 326.644531 292.238281 327.132812 291.640625 327.5625 290.996094 C 327.992188 290.351562 328.355469 289.671875 328.652344 288.957031 C 328.949219 288.242188 329.171875 287.503906 329.324219 286.746094 C 329.476562 285.984375 329.550781 285.21875 329.550781 284.441406 L 329.550781 142.960938 Z M 179.46875 230.652344 L 144.015625 262.28125 C 143.292969 262.914062 142.511719 263.464844 141.679688 263.945312 C 140.847656 264.421875 139.976562 264.8125 139.070312 265.121094 C 138.160156 265.429688 137.230469 265.644531 136.28125 265.769531 C 135.328125 265.894531 134.375 265.925781 133.417969 265.867188 C 132.460938 265.804688 131.519531 265.652344 130.589844 265.40625 C 129.664062 265.160156 128.769531 264.824219 127.90625 264.402344 C 127.046875 263.984375 126.230469 263.480469 125.46875 262.902344 C 124.703125 262.320312 124.003906 261.671875 123.363281 260.953125 C 122.726562 260.238281 122.164062 259.464844 121.675781 258.636719 C 121.191406 257.808594 120.789062 256.941406 120.46875 256.035156 C 120.152344 255.128906 119.921875 254.199219 119.785156 253.25 C 119.648438 252.296875 119.605469 251.34375 119.65625 250.382812 C 119.707031 249.421875 119.847656 248.476562 120.082031 247.546875 C 120.316406 246.613281 120.636719 245.710938 121.046875 244.84375 C 121.457031 243.976562 121.945312 243.152344 122.515625 242.382812 C 123.085938 241.609375 123.722656 240.898438 124.433594 240.25 L 147.535156 219.632812 L 124.433594 198.988281 C 123.695312 198.347656 123.03125 197.640625 122.433594 196.867188 C 121.839844 196.09375 121.324219 195.269531 120.890625 194.394531 C 120.460938 193.519531 120.117188 192.613281 119.863281 191.667969 C 119.613281 190.726562 119.453125 189.765625 119.390625 188.792969 C 119.328125 187.820312 119.363281 186.847656 119.492188 185.878906 C 119.625 184.910156 119.847656 183.964844 120.164062 183.042969 C 120.480469 182.121094 120.886719 181.238281 121.378906 180.394531 C 121.871094 179.550781 122.441406 178.765625 123.089844 178.035156 C 123.738281 177.308594 124.453125 176.648438 125.230469 176.0625 C 126.007812 175.476562 126.835938 174.96875 127.714844 174.546875 C 128.59375 174.125 129.507812 173.792969 130.449219 173.550781 C 131.394531 173.3125 132.355469 173.164062 133.328125 173.117188 C 134.300781 173.066406 135.269531 173.109375 136.234375 173.253906 C 137.199219 173.394531 138.136719 173.632812 139.054688 173.960938 C 139.972656 174.289062 140.847656 174.707031 141.683594 175.210938 C 142.519531 175.714844 143.296875 176.296875 144.015625 176.953125 L 179.46875 208.582031 C 179.855469 208.925781 180.222656 209.292969 180.574219 209.675781 C 180.921875 210.058594 181.25 210.460938 181.554688 210.878906 C 181.863281 211.296875 182.144531 211.730469 182.40625 212.179688 C 182.667969 212.628906 182.902344 213.089844 183.113281 213.5625 C 183.328125 214.035156 183.511719 214.519531 183.675781 215.011719 C 183.835938 215.507812 183.96875 216.007812 184.078125 216.515625 C 184.1875 217.023438 184.269531 217.535156 184.324219 218.050781 C 184.378906 218.566406 184.40625 219.082031 184.40625 219.601562 C 184.40625 220.121094 184.378906 220.640625 184.324219 221.15625 C 184.269531 221.671875 184.1875 222.183594 184.078125 222.691406 C 183.96875 223.199219 183.835938 223.699219 183.675781 224.191406 C 183.511719 224.683594 183.328125 225.167969 183.113281 225.640625 C 182.902344 226.113281 182.667969 226.574219 182.40625 227.023438 C 182.144531 227.472656 181.863281 227.90625 181.554688 228.324219 C 181.25 228.742188 180.921875 229.144531 180.574219 229.527344 C 180.222656 229.914062 179.855469 230.277344 179.46875 230.621094 Z M 241.710938 266.023438 L 195.960938 266.023438 C 195.066406 266.023438 194.175781 265.933594 193.296875 265.757812 C 192.417969 265.582031 191.566406 265.324219 190.738281 264.980469 C 189.910156 264.636719 189.125 264.214844 188.378906 263.71875 C 187.632812 263.21875 186.945312 262.652344 186.308594 262.015625 C 185.675781 261.382812 185.109375 260.691406 184.613281 259.945312 C 184.113281 259.199219 183.695312 258.410156 183.351562 257.578125 C 183.007812 256.75 182.75 255.894531 182.574219 255.015625 C 182.398438 254.132812 182.3125 253.246094 182.3125 252.347656 C 182.3125 251.449219 182.398438 250.558594 182.574219 249.679688 C 182.75 248.796875 183.007812 247.941406 183.351562 247.113281 C 183.695312 246.285156 184.113281 245.496094 184.613281 244.75 C 185.109375 244.003906 185.675781 243.3125 186.308594 242.675781 C 186.945312 242.042969 187.632812 241.476562 188.378906 240.976562 C 189.125 240.476562 189.910156 240.054688 190.738281 239.710938 C 191.566406 239.367188 192.417969 239.109375 193.296875 238.933594 C 194.175781 238.757812 195.066406 238.671875 195.960938 238.671875 L 241.710938 238.671875 C 242.605469 238.671875 243.496094 238.757812 244.375 238.933594 C 245.253906 239.109375 246.105469 239.367188 246.933594 239.710938 C 247.761719 240.054688 248.546875 240.476562 249.292969 240.976562 C 250.039062 241.476562 250.726562 242.042969 251.363281 242.675781 C 251.996094 243.3125 252.5625 244.003906 253.058594 244.75 C 253.558594 245.496094 253.976562 246.285156 254.320312 247.113281 C 254.664062 247.941406 254.921875 248.796875 255.097656 249.679688 C 255.273438 250.558594 255.359375 251.449219 255.359375 252.347656 C 255.359375 253.246094 255.273438 254.132812 255.097656 255.015625 C 254.921875 255.894531 254.664062 256.75 254.320312 257.578125 C 253.976562 258.410156 253.558594 259.199219 253.058594 259.945312 C 252.5625 260.691406 251.996094 261.382812 251.363281 262.015625 C 250.726562 262.652344 250.039062 263.21875 249.292969 263.71875 C 248.546875 264.214844 247.761719 264.636719 246.933594 264.980469 C 246.105469 265.324219 245.253906 265.582031 244.375 265.757812 C 243.496094 265.933594 242.605469 266.023438 241.710938 266.023438 Z M 241.710938 266.023438 " fill-opacity="1" fill-rule="nonzero"/></g><path fill="#000000" d="M 82.179688 105.90625 C 82.179688 106.414062 82.082031 106.90625 81.886719 107.378906 C 81.691406 107.847656 81.414062 108.265625 81.054688 108.625 C 80.691406 108.988281 80.277344 109.265625 79.808594 109.460938 C 79.335938 109.65625 78.847656 109.753906 78.335938 109.753906 C 77.828125 109.753906 77.335938 109.65625 76.867188 109.460938 C 76.398438 109.265625 75.980469 108.988281 75.621094 108.625 C 75.261719 108.265625 74.984375 107.847656 74.789062 107.378906 C 74.59375 106.90625 74.496094 106.414062 74.496094 105.90625 C 74.496094 105.394531 74.59375 104.902344 74.789062 104.433594 C 74.984375 103.960938 75.261719 103.542969 75.621094 103.183594 C 75.980469 102.824219 76.398438 102.542969 76.867188 102.347656 C 77.335938 102.152344 77.828125 102.054688 78.335938 102.054688 C 78.847656 102.054688 79.335938 102.152344 79.808594 102.347656 C 80.277344 102.542969 80.691406 102.824219 81.054688 103.183594 C 81.414062 103.542969 81.691406 103.960938 81.886719 104.433594 C 82.082031 104.902344 82.179688 105.394531 82.179688 105.90625 Z M 82.179688 105.90625 " fill-opacity="1" fill-rule="nonzero"/><path fill="#000000" d="M 120.417969 105.90625 C 120.417969 106.417969 120.320312 106.914062 120.125 107.386719 C 119.925781 107.863281 119.648438 108.28125 119.285156 108.644531 C 118.921875 109.007812 118.503906 109.289062 118.03125 109.484375 C 117.558594 109.679688 117.0625 109.777344 116.550781 109.777344 C 116.039062 109.777344 115.542969 109.679688 115.070312 109.484375 C 114.597656 109.289062 114.179688 109.007812 113.816406 108.644531 C 113.453125 108.28125 113.175781 107.863281 112.976562 107.386719 C 112.78125 106.914062 112.683594 106.417969 112.683594 105.90625 C 112.683594 105.390625 112.78125 104.898438 112.976562 104.421875 C 113.175781 103.945312 113.453125 103.527344 113.816406 103.164062 C 114.179688 102.800781 114.597656 102.523438 115.070312 102.324219 C 115.542969 102.128906 116.039062 102.03125 116.550781 102.03125 C 117.0625 102.03125 117.558594 102.128906 118.03125 102.324219 C 118.503906 102.523438 118.921875 102.800781 119.285156 103.164062 C 119.648438 103.527344 119.925781 103.945312 120.125 104.421875 C 120.320312 104.898438 120.417969 105.390625 120.417969 105.90625 Z M 120.417969 105.90625 " fill-opacity="1" fill-rule="nonzero"/><path fill="#000000" d="M 158.65625 105.90625 C 158.65625 106.417969 158.558594 106.914062 158.363281 107.386719 C 158.167969 107.863281 157.886719 108.28125 157.523438 108.644531 C 157.160156 109.007812 156.742188 109.289062 156.269531 109.484375 C 155.796875 109.679688 155.304688 109.777344 154.789062 109.777344 C 154.277344 109.777344 153.785156 109.679688 153.308594 109.484375 C 152.835938 109.289062 152.417969 109.007812 152.054688 108.644531 C 151.691406 108.28125 151.414062 107.863281 151.21875 107.386719 C 151.019531 106.914062 150.921875 106.417969 150.921875 105.90625 C 150.921875 105.390625 151.019531 104.898438 151.21875 104.421875 C 151.414062 103.945312 151.691406 103.527344 152.054688 103.164062 C 152.417969 102.800781 152.835938 102.523438 153.308594 102.324219 C 153.785156 102.128906 154.277344 102.03125 154.789062 102.03125 C 155.304688 102.03125 155.796875 102.128906 156.269531 102.324219 C 156.742188 102.523438 157.160156 102.800781 157.523438 103.164062 C 157.886719 103.527344 158.167969 103.945312 158.363281 104.421875 C 158.558594 104.898438 158.65625 105.390625 158.65625 105.90625 Z M 158.65625 105.90625 " fill-opacity="1" fill-rule="nonzero"/><path fill="#000000" d="M 174.15625 219.601562 C 174.15625 220.242188 174.027344 220.855469 173.765625 221.441406 C 173.503906 222.023438 173.136719 222.53125 172.65625 222.957031 L 137.203125 254.589844 C 136.984375 254.789062 136.746094 254.960938 136.492188 255.109375 C 136.238281 255.257812 135.972656 255.378906 135.695312 255.476562 C 135.417969 255.574219 135.132812 255.640625 134.84375 255.683594 C 134.550781 255.722656 134.257812 255.734375 133.964844 255.714844 C 133.671875 255.699219 133.382812 255.652344 133.097656 255.578125 C 132.8125 255.503906 132.539062 255.402344 132.273438 255.273438 C 132.007812 255.148438 131.757812 254.992188 131.523438 254.816406 C 131.289062 254.636719 131.074219 254.4375 130.878906 254.21875 C 130.683594 254 130.511719 253.761719 130.363281 253.507812 C 130.214844 253.253906 130.089844 252.988281 129.992188 252.710938 C 129.898438 252.429688 129.828125 252.144531 129.789062 251.855469 C 129.746094 251.5625 129.734375 251.269531 129.753906 250.976562 C 129.769531 250.679688 129.816406 250.390625 129.886719 250.105469 C 129.960938 249.820312 130.0625 249.546875 130.191406 249.28125 C 130.320312 249.015625 130.472656 248.765625 130.648438 248.53125 C 130.824219 248.292969 131.023438 248.078125 131.242188 247.882812 L 158.617188 223.429688 C 158.886719 223.191406 159.128906 222.925781 159.34375 222.632812 C 159.558594 222.339844 159.738281 222.03125 159.886719 221.699219 C 160.035156 221.367188 160.144531 221.027344 160.222656 220.671875 C 160.296875 220.320312 160.335938 219.960938 160.335938 219.597656 C 160.335938 219.238281 160.296875 218.878906 160.222656 218.523438 C 160.144531 218.171875 160.035156 217.828125 159.886719 217.5 C 159.738281 217.167969 159.558594 216.859375 159.34375 216.566406 C 159.128906 216.273438 158.886719 216.007812 158.617188 215.765625 L 131.21875 191.320312 C 131 191.125 130.800781 190.910156 130.621094 190.675781 C 130.445312 190.441406 130.292969 190.191406 130.164062 189.925781 C 130.035156 189.660156 129.9375 189.382812 129.863281 189.097656 C 129.789062 188.8125 129.742188 188.523438 129.726562 188.230469 C 129.710938 187.933594 129.722656 187.640625 129.761719 187.351562 C 129.800781 187.058594 129.871094 186.773438 129.96875 186.496094 C 130.0625 186.214844 130.1875 185.949219 130.335938 185.695312 C 130.484375 185.441406 130.65625 185.203125 130.851562 184.984375 C 131.273438 184.5 131.777344 184.128906 132.363281 183.867188 C 132.949219 183.601562 133.558594 183.472656 134.203125 183.476562 C 135.335938 183.476562 136.328125 183.855469 137.179688 184.613281 L 172.632812 216.246094 C 173.113281 216.671875 173.488281 217.175781 173.753906 217.761719 C 174.019531 218.347656 174.152344 218.960938 174.15625 219.601562 Z M 174.15625 219.601562 " fill-opacity="1" fill-rule="nonzero"/><path fill="#000000" d="M 245.117188 252.316406 C 245.117188 252.765625 245.027344 253.203125 244.855469 253.621094 C 244.683594 254.035156 244.4375 254.40625 244.117188 254.726562 C 243.796875 255.046875 243.429688 255.292969 243.011719 255.464844 C 242.597656 255.640625 242.160156 255.726562 241.710938 255.726562 L 195.960938 255.726562 C 195.511719 255.726562 195.074219 255.640625 194.65625 255.46875 C 194.242188 255.292969 193.871094 255.046875 193.554688 254.726562 C 193.234375 254.40625 192.988281 254.039062 192.816406 253.621094 C 192.640625 253.203125 192.554688 252.765625 192.554688 252.316406 C 192.554688 251.863281 192.640625 251.425781 192.816406 251.007812 C 192.988281 250.589844 193.234375 250.222656 193.554688 249.902344 C 193.871094 249.582031 194.242188 249.335938 194.65625 249.160156 C 195.074219 248.988281 195.511719 248.902344 195.960938 248.902344 L 241.710938 248.902344 C 242.160156 248.902344 242.597656 248.988281 243.015625 249.160156 C 243.429688 249.335938 243.800781 249.582031 244.117188 249.902344 C 244.4375 250.222656 244.683594 250.589844 244.855469 251.007812 C 245.03125 251.425781 245.117188 251.863281 245.117188 252.316406 Z M 245.117188 252.316406 " fill-opacity="1" fill-rule="nonzero"/><path fill="#b392c5" d="M 347.976562 268.828125 C 347.976562 270.199219 347.910156 271.566406 347.777344 272.929688 C 347.640625 274.289062 347.441406 275.644531 347.171875 276.988281 C 346.90625 278.332031 346.574219 279.65625 346.175781 280.96875 C 345.777344 282.28125 345.316406 283.566406 344.792969 284.832031 C 344.269531 286.097656 343.683594 287.335938 343.039062 288.542969 C 342.394531 289.75 341.691406 290.925781 340.929688 292.0625 C 340.167969 293.203125 339.351562 294.300781 338.484375 295.359375 C 337.613281 296.417969 336.695312 297.433594 335.726562 298.402344 C 334.757812 299.371094 333.746094 300.289062 332.6875 301.15625 C 331.628906 302.027344 330.527344 302.839844 329.390625 303.601562 C 328.25 304.363281 327.078125 305.066406 325.871094 305.710938 C 324.664062 306.355469 323.425781 306.941406 322.160156 307.464844 C 320.894531 307.992188 319.605469 308.453125 318.296875 308.847656 C 316.984375 309.246094 315.65625 309.578125 314.316406 309.847656 C 312.972656 310.113281 311.617188 310.3125 310.253906 310.449219 C 308.890625 310.582031 307.527344 310.648438 306.15625 310.648438 C 304.785156 310.648438 303.417969 310.582031 302.054688 310.449219 C 300.695312 310.3125 299.339844 310.113281 297.996094 309.847656 C 296.652344 309.578125 295.328125 309.246094 294.015625 308.847656 C 292.703125 308.453125 291.417969 307.992188 290.152344 307.464844 C 288.886719 306.941406 287.648438 306.355469 286.441406 305.710938 C 285.234375 305.066406 284.058594 304.363281 282.921875 303.601562 C 281.78125 302.839844 280.683594 302.027344 279.625 301.15625 C 278.566406 300.289062 277.550781 299.371094 276.582031 298.402344 C 275.613281 297.433594 274.695312 296.417969 273.828125 295.359375 C 272.957031 294.300781 272.144531 293.203125 271.382812 292.0625 C 270.621094 290.925781 269.917969 289.75 269.273438 288.542969 C 268.625 287.335938 268.042969 286.097656 267.519531 284.832031 C 266.992188 283.566406 266.53125 282.28125 266.136719 280.96875 C 265.738281 279.65625 265.40625 278.332031 265.136719 276.988281 C 264.871094 275.644531 264.671875 274.289062 264.535156 272.929688 C 264.402344 271.566406 264.335938 270.199219 264.335938 268.828125 C 264.335938 267.457031 264.402344 266.09375 264.535156 264.730469 C 264.671875 263.367188 264.871094 262.011719 265.136719 260.667969 C 265.40625 259.328125 265.738281 258 266.136719 256.6875 C 266.53125 255.378906 266.992188 254.089844 267.519531 252.824219 C 268.042969 251.558594 268.625 250.320312 269.273438 249.113281 C 269.917969 247.90625 270.621094 246.734375 271.382812 245.59375 C 272.144531 244.453125 272.957031 243.355469 273.828125 242.296875 C 274.695312 241.238281 275.613281 240.226562 276.582031 239.257812 C 277.550781 238.289062 278.566406 237.371094 279.625 236.5 C 280.683594 235.632812 281.78125 234.816406 282.921875 234.054688 C 284.058594 233.292969 285.234375 232.589844 286.441406 231.945312 C 287.648438 231.300781 288.886719 230.714844 290.152344 230.191406 C 291.417969 229.667969 292.703125 229.207031 294.015625 228.808594 C 295.328125 228.410156 296.652344 228.078125 297.996094 227.8125 C 299.339844 227.542969 300.695312 227.34375 302.054688 227.207031 C 303.417969 227.074219 304.785156 227.007812 306.15625 227.007812 C 307.527344 227.007812 308.890625 227.074219 310.253906 227.207031 C 311.617188 227.34375 312.972656 227.542969 314.316406 227.8125 C 315.65625 228.078125 316.984375 228.410156 318.296875 228.808594 C 319.605469 229.207031 320.894531 229.667969 322.160156 230.191406 C 323.425781 230.714844 324.664062 231.300781 325.871094 231.945312 C 327.078125 232.589844 328.25 233.292969 329.390625 234.054688 C 330.527344 234.816406 331.628906 235.632812 332.6875 236.5 C 333.746094 237.371094 334.757812 238.289062 335.726562 239.257812 C 336.695312 240.226562 337.613281 241.238281 338.484375 242.296875 C 339.351562 243.355469 340.167969 244.453125 340.929688 245.59375 C 341.691406 246.734375 342.394531 247.90625 343.039062 249.113281 C 343.683594 250.320312 344.269531 251.558594 344.792969 252.824219 C 345.316406 254.089844 345.777344 255.378906 346.175781 256.6875 C 346.574219 258 346.90625 259.328125 347.171875 260.667969 C 347.441406 262.011719 347.640625 263.367188 347.777344 264.730469 C 347.910156 266.09375 347.976562 267.457031 347.976562 268.828125 Z M 347.976562 268.828125 " fill-opacity="1" fill-rule="nonzero"/><path fill="#a882bd" d="M 273.746094 242.75 L 273.632812 242.539062 C 273.730469 242.417969 273.824219 242.300781 273.921875 242.183594 Z M 273.746094 242.75 " fill-opacity="1" fill-rule="evenodd"/><path fill="#c4abd2" d="M 264.335938 268.957031 L 265.265625 270.589844 L 264.554688 273.148438 C 264.414062 271.769531 264.339844 270.371094 264.335938 268.957031 Z M 264.335938 268.957031 " fill-opacity="1" fill-rule="evenodd"/><path fill="#bea3cd" d="M 265.265625 270.589844 L 264.335938 268.957031 C 264.335938 268.914062 264.335938 268.871094 264.335938 268.828125 C 264.335938 268.167969 264.351562 267.515625 264.382812 266.863281 Z M 265.265625 270.589844 " fill-opacity="1" fill-rule="evenodd"/><path fill="#d6c5df" d="M 278.035156 299.78125 L 287.839844 297.964844 L 286.710938 305.859375 C 283.558594 304.203125 280.644531 302.15625 278.035156 299.78125 Z M 278.035156 299.78125 " fill-opacity="1" fill-rule="evenodd"/><path fill="#d2bedc" d="M 274.121094 295.707031 L 281.316406 267.496094 L 287.839844 297.964844 L 278.035156 299.78125 C 276.640625 298.515625 275.332031 297.152344 274.121094 295.707031 Z M 274.121094 295.707031 " fill-opacity="1" fill-rule="evenodd"/><path fill="#c4a9d1" d="M 281.316406 267.496094 L 265.550781 258.785156 C 265.796875 257.792969 266.074219 256.816406 266.390625 255.851562 L 282.230469 252.339844 Z M 281.316406 267.496094 " fill-opacity="1" fill-rule="evenodd"/><path fill="#ab86be" d="M 273.632812 242.539062 L 273.746094 242.75 L 273.421875 242.796875 C 273.492188 242.710938 273.5625 242.625 273.632812 242.539062 Z M 273.632812 242.539062 " fill-opacity="1" fill-rule="evenodd"/><path fill="#b494c5" d="M 273.421875 242.796875 L 273.746094 242.75 L 271.402344 245.5625 C 272.039062 244.613281 272.714844 243.691406 273.421875 242.796875 Z M 273.421875 242.796875 " fill-opacity="1" fill-rule="evenodd"/><path fill="#ba9cca" d="M 271.402344 245.5625 L 273.746094 242.75 L 282.230469 252.339844 L 266.390625 255.851562 C 267.589844 252.171875 269.285156 248.714844 271.402344 245.5625 Z M 271.402344 245.5625 " fill-opacity="1" fill-rule="evenodd"/><path fill="#c4abd2" d="M 265.265625 270.589844 L 264.382812 266.863281 C 264.511719 264.089844 264.910156 261.390625 265.550781 258.785156 L 281.316406 267.496094 Z M 265.265625 270.589844 " fill-opacity="1" fill-rule="evenodd"/><path fill="#cebada" d="M 265.644531 279.246094 L 281.316406 267.496094 L 274.121094 295.707031 C 270.160156 290.992188 267.21875 285.394531 265.644531 279.246094 Z M 265.644531 279.246094 " fill-opacity="1" fill-rule="evenodd"/><path fill="#cbb4d7" d="M 264.554688 273.148438 L 265.265625 270.589844 L 281.316406 267.496094 L 265.644531 279.246094 C 265.136719 277.269531 264.769531 275.230469 264.554688 273.148438 Z M 264.554688 273.148438 " fill-opacity="1" fill-rule="evenodd"/><path fill="#d1bddc" d="M 298.277344 284.351562 L 281.316406 267.496094 L 292.535156 264.246094 Z M 298.277344 284.351562 " fill-opacity="1" fill-rule="evenodd"/><path fill="#c1a6cf" d="M 292.535156 264.246094 L 282.230469 252.339844 L 289.40625 239.96875 Z M 292.535156 264.246094 " fill-opacity="1" fill-rule="evenodd"/><path fill="#c9b3d6" d="M 281.316406 267.496094 L 282.230469 252.339844 L 292.535156 264.246094 Z M 281.316406 267.496094 " fill-opacity="1" fill-rule="evenodd"/><path fill="#b99bca" d="M 322.03125 258.835938 L 313.679688 243.832031 L 328.09375 233.21875 C 328.695312 233.589844 329.285156 233.976562 329.867188 234.378906 Z M 322.03125 258.835938 " fill-opacity="1" fill-rule="evenodd"/><path fill="#ae8cc1" d="M 273.746094 242.75 L 273.921875 242.183594 C 276.023438 239.644531 278.417969 237.359375 281.054688 235.375 L 289.40625 239.96875 Z M 273.746094 242.75 " fill-opacity="1" fill-rule="evenodd"/><path fill="#b799c8" d="M 282.230469 252.339844 L 273.746094 242.75 L 289.40625 239.96875 Z M 282.230469 252.339844 " fill-opacity="1" fill-rule="evenodd"/><path fill="#ab86be" d="M 289.40625 239.96875 L 281.054688 235.375 C 283.59375 233.464844 286.359375 231.84375 289.304688 230.546875 Z M 289.40625 239.96875 " fill-opacity="1" fill-rule="evenodd"/><path fill="#d4c1dd" d="M 287.839844 297.964844 L 281.316406 267.496094 L 298.277344 284.351562 Z M 287.839844 297.964844 " fill-opacity="1" fill-rule="evenodd"/><path fill="#d0bcdb" d="M 317.984375 280.332031 L 307.023438 272.910156 L 322.03125 258.835938 Z M 317.984375 280.332031 " fill-opacity="1" fill-rule="evenodd"/><path fill="#d8c7e1" d="M 286.710938 305.859375 L 287.839844 297.964844 L 295.449219 309.265625 C 292.382812 308.453125 289.457031 307.304688 286.710938 305.859375 Z M 286.710938 305.859375 " fill-opacity="1" fill-rule="evenodd"/><path fill="#c6aed4" d="M 307.023438 272.910156 L 313.679688 243.832031 L 322.03125 258.835938 Z M 307.023438 272.910156 " fill-opacity="1" fill-rule="evenodd"/><path fill="#ab86be" d="M 289.40625 239.96875 L 289.304688 230.542969 C 290.761719 229.902344 292.261719 229.339844 293.804688 228.863281 L 307.542969 231.769531 Z M 289.40625 239.96875 " fill-opacity="1" fill-rule="evenodd"/><path fill="#d2bedc" d="M 298.277344 284.351562 L 292.535156 264.246094 L 307.023438 272.910156 Z M 298.277344 284.351562 " fill-opacity="1" fill-rule="evenodd"/><path fill="#d9c9e2" d="M 308.847656 309.871094 L 287.839844 297.964844 L 298.277344 284.351562 Z M 308.847656 309.871094 " fill-opacity="1" fill-rule="evenodd"/><path fill="#dbcbe4" d="M 295.449219 309.265625 L 287.839844 297.964844 L 308.847656 309.871094 L 307.363281 310.632812 C 306.964844 310.640625 306.558594 310.648438 306.15625 310.648438 C 302.453125 310.648438 298.867188 310.167969 295.449219 309.265625 Z M 295.449219 309.265625 " fill-opacity="1" fill-rule="evenodd"/><path fill="#c9b3d6" d="M 307.023438 272.910156 L 292.535156 264.246094 L 313.679688 243.832031 Z M 307.023438 272.910156 " fill-opacity="1" fill-rule="evenodd"/><path fill="#bea3cd" d="M 292.535156 264.246094 L 289.40625 239.96875 L 313.679688 243.832031 Z M 292.535156 264.246094 " fill-opacity="1" fill-rule="evenodd"/><path fill="#b392c5" d="M 313.679688 243.832031 L 289.40625 239.96875 L 307.542969 231.769531 Z M 313.679688 243.832031 " fill-opacity="1" fill-rule="evenodd"/><path fill="#e0d3e7" d="M 307.363281 310.632812 L 308.847656 309.871094 L 309.179688 310.539062 C 308.578125 310.582031 307.972656 310.613281 307.363281 310.632812 Z M 307.363281 310.632812 " fill-opacity="1" fill-rule="evenodd"/><path fill="#dccde4" d="M 308.847656 309.871094 L 298.277344 284.351562 L 316.808594 305.230469 Z M 308.847656 309.871094 " fill-opacity="1" fill-rule="evenodd"/><path fill="#d9c9e2" d="M 316.808594 305.230469 L 298.277344 284.351562 L 317.984375 280.332031 Z M 316.808594 305.230469 " fill-opacity="1" fill-rule="evenodd"/><path fill="#e2d5e9" d="M 309.179688 310.539062 L 308.847656 309.871094 L 316.808594 305.230469 L 316.324219 309.402344 C 314.011719 309.980469 311.625 310.367188 309.179688 310.539062 Z M 309.179688 310.539062 " fill-opacity="1" fill-rule="evenodd"/><path fill="#d4c1dd" d="M 298.277344 284.351562 L 307.023438 272.910156 L 317.984375 280.332031 Z M 298.277344 284.351562 " fill-opacity="1" fill-rule="evenodd"/><path fill="#ae8cc1" d="M 313.679688 243.832031 L 307.542969 231.769531 L 324.65625 231.316406 C 325.835938 231.898438 326.980469 232.53125 328.09375 233.21875 Z M 313.679688 243.832031 " fill-opacity="1" fill-rule="evenodd"/><path fill="#dbcbe4" d="M 316.808594 305.230469 L 317.984375 280.332031 L 330.25 288.375 Z M 316.808594 305.230469 " fill-opacity="1" fill-rule="evenodd"/><path fill="#a882bd" d="M 307.542969 231.769531 L 293.804688 228.863281 C 294.355469 228.691406 294.910156 228.535156 295.46875 228.386719 L 322.980469 230.53125 C 323.546875 230.78125 324.105469 231.042969 324.65625 231.316406 Z M 307.542969 231.769531 " fill-opacity="1" fill-rule="evenodd"/><path fill="#dacae3" d="M 335.992188 298.128906 L 330.25 288.375 L 338.730469 279.09375 L 339.949219 293.464844 C 338.746094 295.113281 337.421875 296.675781 335.992188 298.128906 Z M 335.992188 298.128906 " fill-opacity="1" fill-rule="evenodd"/><path fill="#d5c4df" d="M 330.25 288.375 L 317.984375 280.332031 L 338.730469 279.09375 Z M 330.25 288.375 " fill-opacity="1" fill-rule="evenodd"/><path fill="#c4abd2" d="M 338.730469 279.09375 L 322.03125 258.835938 L 339.878906 244.09375 C 340.554688 245.015625 341.195312 245.964844 341.796875 246.941406 Z M 338.730469 279.09375 " fill-opacity="1" fill-rule="evenodd"/><path fill="#b799c8" d="M 322.03125 258.835938 L 329.867188 234.378906 C 333.722656 237.035156 337.109375 240.324219 339.878906 244.09375 Z M 322.03125 258.835938 " fill-opacity="1" fill-rule="evenodd"/><path fill="#e0d3e7" d="M 325.714844 305.800781 L 316.808594 305.230469 L 330.25 288.375 L 335.992188 298.128906 C 332.992188 301.183594 329.53125 303.777344 325.714844 305.800781 Z M 325.714844 305.800781 " fill-opacity="1" fill-rule="evenodd"/><path fill="#cebada" d="M 317.984375 280.332031 L 322.03125 258.835938 L 338.730469 279.09375 Z M 317.984375 280.332031 " fill-opacity="1" fill-rule="evenodd"/><path fill="#e5dbec" d="M 316.324219 309.402344 L 316.808594 305.230469 L 325.714844 305.800781 C 322.777344 307.359375 319.628906 308.578125 316.324219 309.402344 Z M 316.324219 309.402344 " fill-opacity="1" fill-rule="evenodd"/><path fill="#a37bb8" d="M 312.53125 227.492188 L 298.320312 227.742188 C 300.859375 227.261719 303.476562 227.007812 306.15625 227.007812 C 308.324219 227.007812 310.453125 227.171875 312.53125 227.492188 Z M 312.53125 227.492188 " fill-opacity="1" fill-rule="evenodd"/><path fill="#a882bd" d="M 322.980469 230.53125 L 295.46875 228.386719 C 296.40625 228.140625 297.359375 227.925781 298.320312 227.742188 L 312.53125 227.492188 C 316.191406 228.050781 319.695312 229.085938 322.980469 230.53125 Z M 322.980469 230.53125 " fill-opacity="1" fill-rule="evenodd"/><path fill="#c2a8d0" d="M 338.730469 279.09375 L 341.796875 246.941406 C 345.628906 253.167969 347.875 260.476562 347.96875 268.300781 Z M 338.730469 279.09375 " fill-opacity="1" fill-rule="evenodd"/><path fill="#c6add4" d="M 338.730469 279.09375 L 347.96875 268.300781 C 347.972656 268.476562 347.976562 268.652344 347.976562 268.828125 C 347.976562 271.660156 347.695312 274.425781 347.15625 277.097656 Z M 338.730469 279.09375 " fill-opacity="1" fill-rule="evenodd"/><path fill="#d8c7e1" d="M 339.949219 293.464844 L 338.730469 279.09375 L 344.902344 284.589844 C 343.609375 287.761719 341.941406 290.738281 339.949219 293.464844 Z M 339.949219 293.464844 " fill-opacity="1" fill-rule="evenodd"/><path fill="#d0bcdb" d="M 344.902344 284.589844 L 338.730469 279.09375 L 347.15625 277.097656 C 346.636719 279.691406 345.878906 282.195312 344.902344 284.589844 Z M 344.902344 284.589844 " fill-opacity="1" fill-rule="evenodd"/><g clip-path="url(#781e84f143)"><path fill="#544a59" d="M 306.15625 225.703125 C 318.066406 225.703125 328.847656 230.527344 336.652344 238.332031 C 344.457031 246.136719 349.28125 256.917969 349.28125 268.828125 C 349.28125 280.738281 344.457031 291.519531 336.652344 299.324219 C 328.847656 307.128906 318.066406 311.957031 306.15625 311.957031 C 294.246094 311.957031 283.464844 307.128906 275.660156 299.324219 C 267.855469 291.519531 263.027344 280.738281 263.027344 268.828125 C 263.027344 256.917969 267.855469 246.136719 275.660156 238.332031 C 283.464844 230.527344 294.246094 225.703125 306.15625 225.703125 Z M 334.804688 240.179688 C 327.472656 232.851562 317.34375 228.316406 306.15625 228.316406 C 294.96875 228.316406 284.839844 232.851562 277.507812 240.179688 C 270.175781 247.511719 265.644531 257.640625 265.644531 268.828125 C 265.644531 280.015625 270.175781 290.144531 277.507812 297.476562 C 284.839844 304.808594 294.96875 309.339844 306.15625 309.339844 C 317.34375 309.339844 327.472656 304.808594 334.804688 297.476562 C 342.132812 290.144531 346.667969 280.015625 346.667969 268.828125 C 346.667969 257.640625 342.132812 247.511719 334.804688 240.179688 Z M 334.804688 240.179688 " fill-opacity="1" fill-rule="nonzero"/></g><path fill="#544a59" d="M 329.644531 283.726562 C 330.792969 284.875 331.425781 286.402344 331.425781 288.023438 C 331.425781 289.644531 330.792969 291.171875 329.644531 292.320312 C 328.5 293.464844 326.972656 294.097656 325.351562 294.097656 C 323.730469 294.097656 322.203125 293.464844 321.054688 292.320312 L 305.34375 276.605469 L 307.730469 274.21875 L 323.796875 290.285156 C 323.902344 290.394531 324.046875 290.449219 324.1875 290.449219 C 324.328125 290.449219 324.472656 290.394531 324.582031 290.285156 C 324.796875 290.066406 324.796875 289.714844 324.582031 289.5 L 308.515625 273.433594 L 310.761719 271.1875 L 326.828125 287.253906 C 326.933594 287.363281 327.078125 287.414062 327.21875 287.414062 C 327.363281 287.414062 327.503906 287.363281 327.613281 287.253906 C 327.828125 287.035156 327.828125 286.683594 327.613281 286.46875 L 311.546875 270.402344 L 313.933594 268.015625 Z M 329.644531 283.726562 " fill-opacity="1" fill-rule="evenodd"/><path fill="#544a59" d="M 303.464844 264.546875 L 301.871094 266.140625 L 285.371094 249.636719 C 285.320312 249.585938 285.261719 249.546875 285.195312 249.519531 L 282.328125 248.296875 L 281.015625 245.925781 L 283.253906 243.6875 L 285.625 245 L 286.847656 247.871094 C 286.875 247.933594 286.914062 247.992188 286.964844 248.042969 Z M 303.464844 264.546875 " fill-opacity="1" fill-rule="evenodd"/><path fill="#544a59" d="M 299.847656 280.53125 C 299.695312 280.683594 299.644531 280.910156 299.714844 281.113281 C 300.980469 284.632812 300.085938 288.613281 297.445312 291.257812 C 295.015625 293.6875 291.453125 294.636719 288.15625 293.789062 L 294.070312 287.878906 C 294.171875 287.777344 294.230469 287.632812 294.230469 287.488281 C 294.230469 287.339844 294.171875 287.199219 294.070312 287.09375 L 287.886719 280.910156 C 287.667969 280.695312 287.316406 280.695312 287.101562 280.910156 L 281.1875 286.824219 C 280.34375 283.527344 281.292969 279.964844 283.722656 277.535156 C 286.367188 274.890625 290.347656 274 293.867188 275.265625 C 294.070312 275.335938 294.296875 275.285156 294.449219 275.132812 L 312.460938 257.121094 C 312.613281 256.96875 312.664062 256.742188 312.589844 256.539062 C 311.328125 253.023438 312.21875 249.039062 314.863281 246.398438 C 317.292969 243.964844 320.855469 243.015625 324.148438 243.863281 L 318.238281 249.773438 C 318.023438 249.988281 318.023438 250.339844 318.238281 250.558594 L 324.421875 256.742188 C 324.527344 256.847656 324.667969 256.902344 324.8125 256.902344 C 324.960938 256.902344 325.101562 256.84375 325.207031 256.742188 L 331.117188 250.832031 C 331.964844 254.125 331.011719 257.6875 328.582031 260.117188 C 325.941406 262.761719 321.957031 263.652344 318.4375 262.390625 C 318.238281 262.316406 318.011719 262.367188 317.859375 262.519531 Z M 299.847656 280.53125 " fill-opacity="1" fill-rule="evenodd"/></svg>